<?xml version="1.0" standalone="no"?>
<!DOCTYPE svg PUBLIC "-//W3C//DTD SVG 20010904//EN"
 "http://www.w3.org/TR/2001/REC-SVG-20010904/DTD/svg10.dtd">
<svg version="1.0" xmlns="http://www.w3.org/2000/svg"
 width="736.000000pt" height="750.000000pt" viewBox="0 0 736.000000 750.000000"
 preserveAspectRatio="xMidYMid meet">

<g transform="translate(0.000000,750.000000) scale(0.100000,-0.100000)"
fill="#000000" stroke="none">
<path d="M0 5629 l0 -1871 73 6 c39 3 88 8 107 10 39 6 159 14 324 21 61 3
122 8 136 11 14 3 66 8 115 10 50 2 119 6 155 8 36 3 141 7 233 9 92 3 171 8
174 11 4 3 15 6 25 6 14 0 18 -8 18 -39 0 -34 -3 -39 -27 -44 -16 -2 -68 -3
-117 -1 -68 3 -95 1 -112 -11 -17 -11 -51 -15 -124 -15 -55 0 -100 -4 -100 -9
0 -4 -46 -11 -102 -15 -57 -3 -155 -11 -218 -17 -63 -7 -162 -13 -220 -14 -58
-1 -125 -7 -150 -14 -25 -6 -78 -11 -117 -11 l-73 0 0 -320 0 -320 40 0 40 0
0 40 0 40 40 0 c22 0 40 -4 40 -9 0 -12 59 -71 71 -71 5 0 9 18 9 40 0 36 2
40 26 40 35 0 54 22 54 63 l0 34 61 7 c34 3 88 6 120 6 56 0 139 25 139 42 0
5 19 8 43 7 l42 -1 -43 -15 c-67 -24 -33 -39 76 -35 38 2 42 5 42 27 0 25 0
25 95 25 l95 0 17 -40 c17 -39 19 -40 65 -40 36 0 48 -4 48 -15 0 -11 11 -15
40 -15 29 0 40 4 40 15 0 11 -11 15 -40 15 -22 0 -40 5 -40 10 0 6 -18 10 -40
10 -40 0 -40 0 -40 40 l0 40 91 -4 c50 -2 93 -7 96 -10 4 -3 24 -6 45 -6 35 0
39 -3 55 -40 19 -42 33 -52 33 -22 0 21 39 62 59 62 7 0 32 -16 56 -35 l43
-36 -31 -33 c-18 -19 -41 -38 -52 -44 -11 -6 -14 -12 -7 -12 6 0 12 -8 12 -17
0 -9 10 -27 22 -40 12 -13 16 -23 10 -23 -8 0 -12 -21 -12 -61 0 -33 -5 -103
-12 -155 -9 -78 -9 -97 2 -104 7 -4 10 -12 6 -18 -3 -6 -1 -22 6 -37 10 -22 9
-32 -7 -61 -13 -24 -15 -38 -8 -42 5 -4 16 -24 23 -44 11 -31 11 -44 0 -77 -7
-23 -17 -41 -22 -41 -4 0 -8 -10 -8 -23 0 -13 -6 -29 -12 -36 -10 -11 -10 -14
0 -18 6 -3 12 -15 12 -28 0 -13 5 -27 10 -30 6 -3 10 -46 10 -96 0 -53 -4 -89
-10 -89 -6 0 -10 -33 -10 -80 0 -44 4 -80 8 -80 5 0 9 -54 9 -120 0 -66 -4
-120 -9 -120 -11 0 -10 -127 1 -134 5 -4 11 0 14 6 2 7 9 -6 16 -28 6 -23 18
-48 27 -55 14 -11 19 -10 35 10 21 26 26 106 20 324 -2 82 0 117 8 117 6 0 11
17 11 40 0 23 5 40 11 40 8 0 10 18 6 57 -4 32 -1 105 5 163 8 70 8 131 2 185
-5 44 -8 110 -6 148 l3 67 79 0 c47 0 80 4 80 10 0 6 -22 10 -49 10 -42 0 -54
5 -80 31 -39 38 -39 49 -1 49 28 0 30 2 30 40 0 38 -2 40 -30 40 -16 0 -30 4
-30 10 0 11 68 9 87 -3 6 -4 9 -16 6 -26 -3 -10 0 -22 6 -25 5 -4 8 -13 4 -21
-3 -8 -1 -15 5 -15 5 0 9 -8 8 -17 0 -10 9 -22 21 -28 13 -5 34 -32 48 -60
l25 -50 -25 -3 c-28 -4 -31 -18 -10 -46 8 -11 15 -27 15 -36 0 -42 92 -81 164
-70 45 7 46 6 46 -19 0 -14 11 -38 25 -53 28 -30 35 -81 10 -72 -9 4 -15 1
-15 -8 0 -12 106 -68 130 -68 6 0 19 -6 31 -12 17 -11 23 -10 36 7 11 14 17
16 20 8 3 -7 16 -13 30 -13 24 0 25 -1 20 -67 -4 -78 -43 -214 -63 -226 -8 -4
-14 -16 -14 -26 0 -10 -11 -30 -25 -45 -14 -15 -25 -31 -25 -37 0 -10 -10 -24
-42 -60 -10 -10 -18 -23 -18 -27 0 -5 -20 -23 -45 -41 -25 -18 -45 -36 -45
-40 0 -8 -77 -61 -90 -61 -5 0 -22 -11 -38 -25 -32 -26 -40 -28 -139 -19 -38
4 -63 2 -63 -4 0 -5 -13 -15 -30 -22 -16 -7 -40 -21 -52 -32 -14 -12 -30 -17
-45 -13 -13 3 -37 -3 -58 -15 -20 -11 -46 -20 -59 -20 -13 0 -75 -13 -137 -29
-63 -16 -142 -35 -176 -42 -35 -7 -63 -17 -63 -22 0 -5 -6 -7 -12 -4 -7 2 -24
-2 -38 -9 -38 -21 -170 -62 -170 -52 0 4 5 8 10 8 6 0 10 5 10 11 0 7 -7 8
-17 3 -10 -4 -28 -7 -41 -7 -22 1 -22 0 -7 -17 16 -18 16 -18 -6 -13 -13 4
-26 1 -33 -8 -6 -8 -26 -21 -44 -29 -19 -7 -39 -18 -46 -24 -19 -17 -76 -46
-92 -46 -8 0 -14 -4 -14 -8 0 -9 -127 -62 -148 -62 -6 0 -12 -4 -12 -9 0 -5
-10 -11 -22 -14 -29 -7 -104 -34 -143 -51 -16 -8 -57 -21 -90 -30 -33 -10 -79
-24 -102 -33 l-43 -16 0 -438 0 -439 3680 0 3680 0 0 29 c0 32 -43 91 -65 91
-7 0 -15 3 -17 8 -4 9 -131 72 -147 72 -6 0 -11 5 -11 10 0 6 -9 10 -19 10
-11 0 -22 4 -25 9 -3 4 -26 14 -52 21 -43 12 -48 12 -60 -5 -11 -15 -17 -16
-26 -7 -9 9 -8 12 5 12 9 0 17 7 17 15 0 8 -7 15 -15 15 -9 0 -27 7 -40 16
-14 9 -25 13 -25 9 0 -4 -6 -2 -14 4 -11 9 -16 9 -22 0 -8 -14 -33 26 -34 54
0 10 -4 16 -8 13 -5 -3 -25 3 -45 14 -20 11 -56 25 -81 31 -25 6 -51 17 -57
25 -6 8 -23 14 -36 14 -14 0 -38 11 -55 25 -16 14 -37 25 -47 25 -10 0 -26 9
-35 19 -10 11 -24 17 -31 15 -7 -3 -15 2 -18 10 -4 9 -13 16 -22 16 -8 0 -15
5 -15 10 0 6 -7 10 -15 10 -9 0 -18 7 -21 15 -4 9 -15 13 -30 11 -13 -3 -24
-1 -24 4 0 5 -13 11 -30 15 -16 4 -32 11 -35 16 -4 5 -17 9 -31 9 -13 0 -32 9
-41 20 -27 31 -53 26 -53 -10 0 -25 4 -30 24 -30 36 0 40 -17 6 -24 -27 -5
-30 -10 -30 -41 0 -19 -4 -35 -10 -35 -5 0 -10 7 -10 16 0 8 -13 20 -30 25
-25 9 -30 16 -30 45 0 31 -3 34 -30 34 -23 0 -30 -5 -30 -19 0 -11 6 -21 13
-24 8 -3 7 -7 -5 -12 -20 -8 -48 15 -48 40 0 8 -7 18 -15 21 -8 4 -15 12 -15
20 0 20 37 17 44 -3 6 -15 8 -15 16 -3 20 32 -53 41 -121 14 -45 -19 -59 -11
-52 30 3 16 -4 29 -28 46 -17 14 -46 38 -63 53 -68 62 -118 82 -130 52 -7 -19
-36 -19 -36 0 0 22 -40 19 -41 -2 -2 -31 2 -57 13 -85 12 -31 -8 -88 -31 -88
-11 0 -12 13 -6 65 l7 65 -41 0 c-38 0 -41 2 -42 28 l-1 27 -14 -32 c-16 -37
-33 -43 -41 -13 -10 37 -26 22 -19 -18 6 -38 6 -38 -37 -48 -29 -6 -45 -16
-52 -32 -5 -12 -17 -21 -26 -20 -9 2 -16 -1 -17 -6 0 -5 -6 -12 -14 -17 -10
-6 -10 -11 0 -21 9 -9 16 -7 32 10 34 36 50 28 50 -24 0 -41 -2 -45 -21 -39
-14 5 -27 -1 -46 -22 -17 -17 -28 -23 -31 -15 -2 7 -21 12 -43 12 -33 0 -41
-4 -56 -33 -18 -33 -20 -38 -22 -70 0 -10 -13 -22 -28 -28 -16 -5 -38 -26 -51
-47 -27 -43 -71 -69 -84 -49 -5 8 8 27 40 57 26 25 54 60 61 77 8 18 17 33 20
33 12 0 47 78 79 175 49 146 69 391 33 403 -11 4 -13 -5 -7 -47 4 -29 3 -51
-3 -51 -12 0 -21 25 -21 58 0 15 -9 38 -20 52 -11 14 -20 32 -20 41 0 18 -27
45 -36 36 -4 -3 4 -20 16 -37 25 -35 28 -85 11 -175 -5 -27 -7 -53 -5 -57 3
-5 -2 -11 -11 -15 -13 -4 -15 -13 -11 -34 5 -26 3 -29 -20 -29 -22 0 -24 2
-14 15 17 20 7 30 -33 33 -27 2 -40 -3 -55 -23 -25 -31 -40 -32 -44 -2 -2 17
-7 10 -21 -28 -30 -83 -31 -89 -19 -81 8 5 12 0 12 -14 0 -15 -8 -22 -30 -26
-16 -4 -32 -14 -35 -24 -3 -10 -21 -28 -40 -41 -19 -13 -35 -27 -35 -31 0 -5
-6 -8 -14 -8 -8 0 -21 -6 -28 -13 -14 -13 -162 -86 -213 -105 -131 -49 -338
-75 -552 -71 -154 4 -163 5 -187 28 -21 20 -28 22 -41 11 -8 -7 -13 -16 -10
-20 10 -16 -15 -21 -55 -10 -22 5 -58 15 -81 21 -22 5 -49 19 -60 30 -11 11
-30 19 -42 17 -22 -4 -24 -9 -12 -40 9 -23 -20 -23 -134 0 -62 13 -87 22 -95
37 -6 11 -12 22 -14 25 -2 2 -7 -2 -12 -10 -7 -11 -10 -11 -10 -2 0 7 11 18
25 24 14 6 25 16 25 22 1 19 82 68 120 73 31 4 40 1 57 -21 12 -14 30 -26 41
-26 11 0 25 -7 32 -15 7 -8 19 -15 27 -15 10 0 14 -7 10 -19 -4 -18 26 -41 53
-41 24 0 7 29 -17 32 -26 4 -25 5 14 16 23 7 44 18 46 25 4 9 8 9 15 -2 8 -11
11 -11 18 2 6 10 18 14 37 10 15 -3 27 -8 27 -12 0 -9 131 -13 144 -3 6 4 27
9 46 11 19 2 37 5 40 7 6 7 -22 24 -31 18 -4 -2 -12 3 -19 11 -7 8 -19 15 -28
15 -8 0 -23 6 -31 13 -9 8 -38 22 -66 32 -27 10 -56 25 -63 32 -11 11 -9 15
15 24 l28 10 -27 20 c-23 17 -25 22 -15 44 7 14 20 25 30 25 10 0 17 8 17 19
0 20 34 31 94 31 18 0 37 5 43 11 6 6 21 9 34 7 26 -3 59 28 59 55 0 9 4 19
10 22 5 3 10 13 10 22 0 11 -7 14 -25 11 -18 -4 -25 -1 -25 10 0 16 43 79 68
100 14 11 14 12 -1 12 -9 0 -17 3 -17 7 0 3 29 36 65 72 35 36 81 85 102 107
21 23 61 66 88 96 87 94 159 192 177 239 5 12 33 18 125 27 124 12 212 31 272
59 47 22 82 49 74 57 -13 13 -92 6 -107 -10 -10 -10 -16 -11 -16 -4 0 12 -88
8 -154 -6 -36 -9 -116 32 -116 58 0 10 -4 18 -9 18 -10 0 -71 85 -71 99 0 5
-8 12 -17 16 -17 6 -17 7 0 19 24 18 22 31 -10 67 -23 25 -27 39 -26 77 2 38
8 52 30 70 19 15 24 25 16 30 -6 4 -15 20 -18 35 -4 15 -12 27 -17 27 -6 0 -5
6 2 15 7 8 18 15 25 15 7 0 29 11 49 25 43 29 64 31 81 9 9 -13 19 -15 40 -10
23 6 26 9 14 17 -12 7 -12 9 0 9 10 0 7 8 -9 25 -28 30 -21 40 26 36 21 -1 48
5 68 17 25 15 46 18 85 15 46 -3 53 -1 58 15 3 14 11 18 24 15 14 -4 19 0 19
16 0 23 -25 29 -33 9 -4 -8 -6 -7 -6 3 -1 19 -21 29 -55 29 -12 0 -31 7 -42
15 -13 10 -45 14 -101 15 -66 0 -83 3 -83 14 0 19 13 27 53 33 17 3 42 13 55
24 14 10 33 19 43 19 11 0 19 7 19 15 0 28 78 56 194 70 61 7 123 19 139 26
24 11 30 10 50 -8 19 -17 105 -53 128 -53 4 0 17 16 28 36 21 35 21 39 6 90
-25 85 -96 120 -112 55 -14 -58 -19 -58 -173 -13 -64 18 -147 18 -166 -1 -12
-12 -46 -8 -63 7 -9 7 -37 21 -62 30 -25 10 -58 28 -74 40 l-29 24 23 48 c13
27 26 56 31 64 4 8 19 21 34 28 15 8 30 20 33 28 3 8 13 14 23 14 13 0 22 -16
36 -66 19 -72 31 -83 72 -64 l27 12 -28 20 c-21 16 -27 28 -27 59 0 28 4 39
15 39 10 0 15 10 15 28 0 46 13 56 64 49 56 -8 75 -1 87 30 5 13 21 28 36 33
89 32 98 48 74 126 -21 66 -40 78 -75 45 -29 -27 -56 -32 -103 -19 -56 15 -90
43 -91 73 0 14 -5 45 -12 70 -8 27 -9 57 -4 77 4 18 7 78 6 132 -1 84 -4 104
-21 127 -12 16 -21 43 -21 61 0 18 -7 42 -15 52 -20 27 -19 42 6 67 17 17 19
23 8 30 -7 4 -17 5 -21 3 -4 -3 -8 0 -8 5 0 6 3 11 8 11 4 0 13 12 19 27 11
22 10 29 -3 45 -9 9 -20 15 -24 13 -4 -3 -13 2 -20 10 -19 23 -8 192 14 213
15 15 18 15 26 2 6 -8 9 -26 9 -40 -4 -65 -1 -70 37 -66 27 4 33 2 25 -8 -7
-8 -3 -20 14 -41 21 -27 22 -32 8 -47 -20 -22 -10 -68 15 -68 10 0 29 -11 42
-25 13 -14 29 -25 36 -25 7 0 17 -6 21 -12 26 -41 125 -83 217 -94 105 -12
240 48 221 98 -3 8 3 31 15 51 17 28 33 39 73 52 29 9 62 28 74 41 12 13 26
24 32 24 5 0 12 8 15 18 3 9 4 5 2 -10 -4 -37 9 -181 28 -305 33 -210 22 -414
-27 -508 -8 -17 -18 -49 -22 -70 -4 -22 -18 -75 -31 -117 -28 -89 -30 -118 -9
-118 8 0 15 5 15 10 0 6 16 10 35 10 19 0 35 3 35 8 0 15 53 32 66 21 8 -6 43
-9 84 -7 61 3 70 1 70 -14 0 -14 -9 -18 -40 -18 -22 0 -40 5 -40 11 0 6 -18
-4 -40 -21 -23 -18 -40 -26 -40 -19 0 10 -3 10 -12 1 -10 -10 -10 -15 1 -21
11 -7 10 -14 -8 -36 -26 -34 -27 -45 -1 -45 13 0 20 7 20 20 0 17 7 20 40 20
33 0 40 -3 40 -20 0 -18 7 -20 60 -20 l60 0 0 -40 c0 -44 2 -43 -83 -40 -32 1
-64 -3 -72 -10 -16 -14 -113 -19 -137 -8 -9 4 -19 4 -23 -1 -3 -6 -23 -9 -45
-8 -21 1 -42 -1 -45 -4 -11 -12 -48 -196 -42 -212 4 -11 18 -17 36 -17 20 0
31 -6 34 -17 3 -13 5 -14 6 -3 2 24 91 14 91 -10 0 -20 19 -30 56 -30 21 0 24
-4 24 -39 0 -40 0 -40 -42 -44 -24 -2 -14 -3 22 -1 36 2 127 4 203 4 l137 0 0
55 0 55 40 0 c29 0 40 4 40 15 0 20 59 20 106 0 20 -8 48 -12 64 -8 26 5 30 2
30 -16 0 -14 6 -21 20 -21 11 0 20 -6 20 -14 0 -8 8 -17 18 -21 16 -6 16 -7 0
-19 -13 -9 -18 -27 -18 -60 0 -41 -3 -46 -22 -46 l-21 0 21 -23 c12 -13 22
-31 22 -40 0 -9 5 -17 10 -17 6 0 10 -18 10 -39 0 -22 5 -41 13 -44 8 -3 6
-13 -10 -35 -28 -38 -28 -39 -4 -87 14 -29 16 -46 10 -68 -5 -17 -6 -87 -2
-156 4 -69 7 -217 7 -328 0 -112 4 -203 9 -203 4 0 5 -42 2 -92 -6 -78 -4 -96
10 -113 11 -14 18 -16 21 -7 11 26 24 -1 24 -52 0 -55 19 -86 52 -86 30 0 38
26 37 111 -4 178 18 559 32 559 5 0 9 18 9 40 0 22 4 40 9 40 6 0 7 64 4 160
-4 116 -2 160 6 160 6 0 11 17 11 40 0 22 -4 40 -10 40 -5 0 -10 18 -10 40 0
33 3 40 20 40 17 0 20 7 20 40 0 35 3 40 23 40 19 1 17 5 -21 38 -37 33 -42
42 -42 80 l0 42 40 0 40 0 0 40 c0 33 -3 40 -20 40 -18 0 -20 7 -20 80 0 47 4
80 10 80 6 0 10 33 10 80 l0 80 -30 0 c-28 0 -30 2 -30 40 l0 40 50 0 50 0 0
-80 c0 -47 -4 -80 -10 -80 -5 0 -10 -18 -10 -40 l0 -40 40 0 40 0 0 -105 0
-105 40 0 40 0 0 65 c0 37 4 65 10 65 6 0 10 16 10 35 0 19 9 50 20 70 16 28
20 54 20 125 0 65 3 90 13 90 6 0 -8 18 -33 40 l-45 39 31 1 c48 0 57 19 52
106 -2 41 -2 71 0 65 2 -6 21 -11 43 -11 l39 0 0 -120 0 -120 84 0 83 0 -5
-50 c-3 -34 1 -61 12 -84 21 -46 20 -56 -9 -88 -14 -15 -21 -30 -15 -33 6 -3
10 -19 10 -35 0 -15 5 -30 10 -32 7 -2 12 -61 13 -161 1 -86 5 -157 9 -157 14
0 9 -96 -7 -133 -19 -46 -19 -88 0 -134 12 -28 16 -78 16 -205 1 -92 4 -168 8
-168 4 0 8 -53 8 -118 0 -71 4 -126 11 -139 7 -12 14 -50 17 -85 3 -35 3 -57
-1 -50 -11 24 -24 1 -24 -44 0 -25 5 -44 11 -44 6 0 1 -9 -12 -20 -24 -20 -23
-25 16 -45 6 -3 5 -7 -2 -11 -15 -7 -18 -110 -3 -119 6 -3 7 -30 3 -65 -5 -52
-4 -60 11 -60 18 0 22 -15 6 -25 -6 -3 -10 -17 -10 -31 0 -17 5 -24 20 -24 17
0 20 -7 20 -40 0 -22 5 -40 10 -40 15 0 12 -78 -2 -83 -10 -3 -10 -7 1 -20 22
-27 31 -20 31 22 0 31 6 44 30 64 23 20 30 34 30 61 0 20 -4 36 -10 36 -5 0
-10 20 -10 43 0 31 6 49 20 62 22 20 26 51 8 58 -10 3 -10 8 2 21 9 12 13 37
12 77 -1 32 2 59 7 59 8 0 28 154 22 175 -11 39 -16 164 -8 185 6 14 11 107
13 208 2 124 7 188 15 198 8 10 10 37 6 82 -4 47 -1 74 8 92 8 14 14 36 14 50
0 24 0 24 -14 6 -14 -18 -15 -18 -25 8 -5 15 -10 29 -10 32 0 12 36 84 42 84
5 0 8 56 8 123 0 96 -4 132 -17 157 -15 30 -15 46 -5 144 20 179 27 412 13
420 -14 9 -15 53 -1 61 6 4 10 178 10 489 l0 484 -36 7 c-25 4 -39 2 -44 -6
-9 -14 -348 -21 -356 -7 -3 4 -14 8 -25 8 -10 0 -19 5 -19 11 0 7 7 8 18 4 36
-15 54 -18 61 -9 11 16 76 34 119 34 31 0 42 4 42 15 0 12 16 15 80 15 44 0
80 -4 80 -9 0 -14 41 0 47 15 3 8 11 14 19 14 12 0 14 235 14 1575 l0 1575
-3680 0 -3680 0 0 -1871z m2500 167 c0 -7 -16 -20 -36 -30 -37 -17 -85 -15
-112 7 -17 14 10 44 63 68 l40 19 23 -26 c12 -14 22 -31 22 -38z m-227 2 c24
-12 47 -33 47 -42 0 -3 -10 -6 -22 -6 -25 0 -58 -27 -58 -47 0 -8 11 -24 25
-37 22 -21 23 -25 10 -36 -22 -18 -66 -15 -82 6 -20 27 -16 104 7 142 21 34
38 39 73 20z m279 -82 c23 -51 -49 -155 -89 -130 -24 15 -28 34 -6 34 46 0 60
63 18 82 -43 19 -28 36 33 37 25 1 35 -4 44 -23z m-136 -11 c35 -54 -37 -115
-78 -65 -23 29 -23 45 2 70 27 27 56 25 76 -5z m-122 0 c-4 -8 -8 -15 -10 -15
-2 0 -4 7 -4 15 0 8 4 15 10 15 5 0 7 -7 4 -15z m-144 -28 c0 -72 56 -108 123
-79 36 15 46 16 67 5 14 -7 32 -13 40 -13 9 0 33 -9 55 -20 52 -26 58 -26 100
12 39 33 38 33 67 -16 9 -17 7 -23 -11 -34 -28 -19 -27 -34 3 -26 32 8 47 -31
19 -51 -17 -13 -17 -14 0 -20 23 -9 22 -30 -4 -56 -14 -14 -18 -24 -10 -28 8
-5 7 -13 -3 -26 -11 -15 -24 -18 -64 -16 -78 4 -142 -39 -142 -96 0 -25 -18
-37 -68 -48 -29 -6 -38 -3 -62 20 -26 25 -34 27 -85 23 -43 -4 -62 -11 -84
-32 -35 -33 -77 -29 -65 6 5 17 3 18 -15 9 -15 -9 -27 -9 -41 -1 -23 12 -25
21 -8 38 9 9 7 12 -13 12 -30 0 -58 38 -37 51 7 5 19 9 26 9 7 0 10 5 7 10 -3
6 -17 7 -30 4 -20 -5 -25 -1 -31 20 -6 23 -2 115 8 171 2 12 -3 20 -12 20 -31
0 -52 84 -30 124 12 24 67 34 120 22 36 -8 50 -6 94 14 73 33 86 32 86 -8z
m737 -354 c42 -19 80 -70 106 -141 31 -86 31 -258 -1 -327 -28 -60 -55 -91
-104 -116 -66 -34 -195 -18 -183 22 3 10 7 28 10 38 3 10 19 24 35 31 42 17
88 73 96 116 5 27 1 48 -14 80 -30 62 -62 79 -147 79 -92 1 -103 8 -70 47 18
21 25 41 25 70 0 42 16 62 75 95 63 35 109 36 172 6z m-299 -63 c24 -23 28
-50 12 -81 -8 -14 -21 -19 -51 -19 -22 0 -50 -5 -61 -11 -16 -9 -26 -7 -47 8
-35 27 -37 54 -6 92 24 27 33 31 79 31 39 0 58 -5 74 -20z m-368 -80 c19 0 40
-33 40 -64 0 -38 -15 -56 -47 -56 -13 0 -37 -9 -52 -21 -25 -18 -32 -19 -52
-8 -13 6 -27 17 -31 23 -13 19 -8 60 10 84 19 25 89 54 110 47 8 -3 17 -5 22
-5z m-306 -84 c-9 -22 12 -27 30 -7 27 30 77 14 98 -31 10 -20 26 -43 37 -50
18 -13 16 -15 -24 -31 -123 -51 -131 -230 -13 -297 31 -17 51 -21 100 -18 81
4 90 -9 54 -80 -68 -133 -177 -192 -279 -148 -106 45 -209 235 -223 412 -10
120 -1 163 45 209 43 44 64 53 133 54 37 1 46 -2 42 -13z m613 -53 c62 -40 88
-93 88 -180 0 -64 -3 -75 -31 -110 -79 -100 -210 -109 -302 -20 -39 37 -65
115 -56 167 10 56 60 126 107 149 62 31 141 29 194 -6z m2653 11 c0 -8 -5 -12
-10 -9 -6 4 -8 11 -5 16 9 14 15 11 15 -7z m-30 -14 c0 -13 -7 -20 -20 -20
-25 0 -25 9 -2 26 22 17 22 17 22 -6z m147 -26 c7 -20 -8 -48 -28 -51 -8 -2
-22 4 -32 11 -16 12 -16 17 -5 35 15 25 56 28 65 5z m-2549 -6 c17 -17 15 -73
-3 -88 -19 -16 -25 -11 -35 32 -4 18 -11 41 -15 51 -6 13 -2 17 17 17 13 0 29
-5 36 -12z m-624 -150 c3 -24 9 -58 12 -75 6 -30 4 -33 -17 -33 -63 0 -93 90
-43 129 15 12 30 21 34 21 4 0 10 -19 14 -42z m3073 -364 c-3 -3 -12 -4 -19
-1 -8 3 -5 6 6 6 11 1 17 -2 13 -5z m40 -10 c-3 -3 -12 -4 -19 -1 -8 3 -5 6 6
6 11 1 17 -2 13 -5z m-112 -229 l30 -14 -44 2 c-25 1 -46 7 -49 15 -5 16 25
15 63 -3z m1686 -6 c10 -5 24 -7 31 -6 7 2 10 2 6 0 -14 -8 -8 -23 9 -23 9 0
14 -2 11 -5 -10 -10 -68 8 -68 21 0 19 -13 17 -43 -6 -14 -11 -32 -17 -41 -14
-9 4 -18 0 -22 -9 -10 -27 -74 -41 -184 -40 -68 1 -116 -4 -138 -12 -22 -10
-80 -15 -180 -15 -179 -2 -314 -6 -407 -15 -54 -5 -67 -4 -58 5 6 7 10 18 7
24 -5 15 67 49 89 40 12 -4 17 -1 17 10 0 13 11 16 58 16 31 1 131 8 222 16
91 9 206 19 255 22 120 9 414 3 436 -9z m-3001 -219 c0 -5 -7 -10 -15 -10 -8
0 -15 5 -15 10 0 6 7 10 15 10 8 0 15 -4 15 -10z m66 -32 c19 -37 13 -58 -15
-51 -16 4 -21 0 -22 -13 -1 -11 -5 -6 -8 11 -4 17 -4 34 1 40 4 5 8 20 8 33 0
29 15 21 36 -20z m-76 -50 c0 -5 -11 -8 -25 -8 -18 0 -25 -5 -25 -20 0 -13 7
-20 20 -20 11 0 20 -7 20 -15 0 -23 39 -38 86 -32 l44 5 0 -38 c0 -23 5 -40
14 -43 9 -4 14 -24 14 -63 1 -70 -3 -77 -28 -61 -12 7 -20 23 -20 40 0 45 -25
29 -46 -28 -7 -19 -8 -19 -11 3 -5 26 -20 29 -26 5 -3 -10 -3 1 0 25 7 50 -12
58 -21 10 -13 -70 -16 -74 -45 -56 -15 9 -21 23 -21 50 0 34 -3 38 -25 38 -23
0 -25 4 -25 44 0 25 5 48 10 51 14 9 12 36 -4 54 -23 26 -3 61 34 61 17 0 39
7 47 16 13 13 17 13 24 2 5 -7 9 -16 9 -20z m2017 -204 c-3 -3 -12 -4 -19 -1
-8 3 -5 6 6 6 11 1 17 -2 13 -5z m-39 -139 c26 -24 26 -25 5 -25 -12 0 -27 9
-33 19 -20 39 -10 41 28 6z m-238 -179 c0 -3 -4 -8 -10 -11 -5 -3 -10 -1 -10
4 0 6 5 11 10 11 6 0 10 -2 10 -4z m1538 -148 c2 -9 -6 -18 -18 -21 -21 -5
-24 1 -14 28 8 19 28 15 32 -7z m-1588 -8 c0 -5 -5 -10 -11 -10 -5 0 -7 5 -4
10 3 6 8 10 11 10 2 0 4 -4 4 -10z m893 -66 c9 -4 17 -10 17 -15 0 -5 18 -9
40 -9 28 0 40 -4 40 -14 0 -10 -22 -16 -80 -21 -69 -6 -80 -10 -80 -26 0 -11
7 -19 16 -19 8 0 12 -4 9 -10 -3 -5 -28 -10 -56 -10 -37 0 -49 -4 -49 -15 0
-18 -4 -18 -47 -3 -24 9 -33 18 -33 35 0 20 -5 23 -40 23 -33 0 -40 -3 -40
-19 0 -20 -54 -81 -71 -81 -5 0 -9 18 -9 40 0 34 -3 40 -21 40 -15 0 -20 5
-17 23 3 20 9 22 58 22 44 0 55 3 58 18 3 15 17 17 123 17 l119 0 0 25 c0 22
3 23 23 15 12 -6 30 -13 40 -16z m-6105 0 c37 -26 24 -84 -20 -84 -13 0 -18 8
-18 30 0 29 0 29 -67 32 -64 3 -67 4 -43 17 17 10 25 11 28 2 6 -18 82 -14 82
4 0 19 10 19 38 -1z m5722 -34 c0 -5 -9 -10 -20 -10 -11 0 -20 5 -20 10 0 6 9
10 20 10 11 0 20 -4 20 -10z m-4312 -243 c-5 -11 -8 -38 -5 -61 3 -22 3 -33 0
-23 -2 9 -8 17 -13 17 -16 0 -16 84 0 97 20 15 32 -4 18 -30z m2996 -106 c3
-5 -1 -11 -9 -15 -9 -3 -15 0 -15 9 0 16 16 20 24 6z m1556 -50 c0 -5 3 -16 6
-24 4 -11 -1 -13 -20 -10 -32 6 -37 43 -6 43 11 0 20 -4 20 -9z m-1666 -62 c8
-8 -3 -10 -47 -7 -32 3 -63 11 -70 18 -10 10 -1 11 47 7 32 -3 64 -11 70 -18z
m1186 6 c0 -9 -9 -15 -22 -15 -22 1 -23 1 -4 15 25 19 26 19 26 0z m-1336
-100 c3 -10 -1 -15 -14 -15 -23 0 -35 16 -18 23 21 9 26 8 32 -8z m-2540 -74
c15 -6 16 -10 7 -16 -7 -4 -16 -3 -20 2 -3 6 -13 13 -21 16 -13 5 -13 5 0 6 8
0 24 -4 34 -8z m4513 -1233 c-3 -7 -5 -2 -5 12 0 14 2 19 5 13 2 -7 2 -19 0
-25z m0 -110 c-2 -13 -4 -3 -4 22 0 25 2 35 4 23 2 -13 2 -33 0 -45z m-1347
-285 c0 -33 -3 -44 -11 -36 -9 9 -3 83 7 83 2 0 4 -21 4 -47z m-170 -74 c0
-11 -4 -17 -10 -14 -5 3 -10 13 -10 21 0 8 5 14 10 14 6 0 10 -9 10 -21z m-84
-36 c-10 -10 -19 5 -10 18 6 11 8 11 12 0 2 -7 1 -15 -2 -18z m236 -21 c-6 -2
-9 -9 -6 -17 3 -7 0 -16 -6 -20 -20 -12 -22 2 -4 37 12 22 19 28 22 19 3 -8 0
-17 -6 -19z m341 -3 c5 -4 6 -13 2 -20 -6 -9 -10 -8 -16 7 -4 10 -8 26 -8 34
1 13 1 13 6 0 3 -8 10 -18 16 -21z m-33 -104 c0 -18 -5 -25 -20 -25 -15 0 -20
7 -20 25 0 18 5 25 20 25 15 0 20 -7 20 -25z m128 -53 c-4 -36 -33 -51 -55
-29 -17 17 -17 18 5 23 15 5 22 14 22 31 0 22 2 24 16 13 8 -7 14 -24 12 -38z
m-501 6 c-3 -8 -6 -5 -6 6 -1 11 2 17 5 13 3 -3 4 -12 1 -19z m713 7 c0 -8 -7
-15 -16 -15 -14 0 -14 3 -4 15 7 8 14 15 16 15 2 0 4 -7 4 -15z m527 -11 c-3
-3 -12 -4 -19 -1 -8 3 -5 6 6 6 11 1 17 -2 13 -5z m35 -60 c38 -20 42 -31 21
-62 -17 -27 -18 -27 -21 -4 -2 15 -10 22 -26 22 -12 0 -26 4 -32 10 -5 5 -27
16 -49 24 l-40 15 33 0 c17 1 32 6 32 11 0 12 42 4 82 -16z m-1413 -229 c2
-14 -2 -17 -19 -12 -13 3 -23 0 -27 -9 -7 -18 -43 -18 -43 0 0 8 14 17 30 21
17 4 30 11 30 17 0 17 25 2 29 -17z m1621 -16 c0 -24 -23 -21 -28 4 -2 10 3
17 12 17 10 0 16 -9 16 -21z m109 -55 c8 -8 -5 -12 -51 -19 -40 -6 -48 -5 -48
8 0 8 6 18 13 20 12 5 78 -2 86 -9z m-939 -164 c0 -5 -4 -10 -10 -10 -5 0 -10
-11 -10 -25 0 -25 -23 -35 -35 -15 -3 6 0 10 8 10 8 0 18 11 21 25 6 24 26 36
26 15z m940 -10 c0 -5 -4 -10 -10 -10 -5 0 -10 5 -10 10 0 6 5 10 10 10 6 0
10 -4 10 -10z"/>
<path d="M2437 5453 c-11 -11 -8 -48 5 -61 17 -17 26 -15 38 8 18 34 -18 78
-43 53z"/>
<path d="M2053 5343 c-18 -7 -16 -48 2 -63 30 -25 61 30 33 58 -13 13 -16 13
-35 5z"/>
<path d="M2255 5324 c-35 -35 7 -70 54 -44 25 13 28 45 5 54 -25 10 -42 7 -59
-10z m46 -19 c0 -5 -9 -11 -21 -13 -20 -3 -27 8 -13 22 10 9 34 3 34 -9z"/>
<path d="M6610 4210 c19 -13 30 -13 30 0 0 6 -10 10 -22 10 -19 0 -20 -2 -8
-10z"/>
<path d="M6098 4163 c12 -2 32 -2 45 0 12 2 2 4 -23 4 -25 0 -35 -2 -22 -4z"/>
<path d="M3720 3788 c1 -20 29 -52 37 -43 5 4 2 10 -4 12 -7 3 -13 13 -13 24
0 10 -4 19 -10 19 -5 0 -10 -6 -10 -12z"/>
<path d="M1200 3249 c0 -5 5 -7 10 -4 6 3 10 8 10 11 0 2 -4 4 -10 4 -5 0 -10
-5 -10 -11z"/>
<path d="M5190 3203 c0 -10 12 -36 28 -58 l27 -40 3 29 c3 22 -4 36 -27 58
-26 24 -31 26 -31 11z"/>
<path d="M400 3160 c0 -17 7 -20 40 -20 38 0 40 -1 40 -32 0 -17 3 -29 6 -25
4 3 3 27 0 52 -7 45 -8 45 -47 45 -32 0 -39 -3 -39 -20z"/>
<path d="M720 3169 c0 -5 5 -7 10 -4 6 3 10 8 10 11 0 2 -4 4 -10 4 -5 0 -10
-5 -10 -11z"/>
<path d="M540 3110 c0 -16 5 -30 10 -30 6 0 10 5 10 10 0 6 10 10 22 10 20 0
21 1 3 20 -27 29 -45 25 -45 -10z"/>
<path d="M5432 3110 c0 -14 2 -19 5 -12 2 6 2 18 0 25 -3 6 -5 1 -5 -13z"/>
<path d="M702 3107 c-9 -11 -10 -17 -2 -22 15 -9 23 -1 18 21 -3 15 -4 16 -16
1z"/>
<path d="M800 3090 c0 -5 18 -10 40 -10 22 0 40 5 40 10 0 6 -18 10 -40 10
-22 0 -40 -4 -40 -10z"/>
<path d="M225 2951 c-3 -5 -1 -12 5 -16 5 -3 10 1 10 9 0 18 -6 21 -15 7z"/>
<path d="M560 2950 c0 -5 5 -10 10 -10 6 0 10 5 10 10 0 6 -4 10 -10 10 -5 0
-10 -4 -10 -10z"/>
<path d="M275 2770 c-27 -5 -65 -13 -82 -19 -20 -6 -33 -6 -33 0 0 5 -18 9
-40 9 -38 0 -54 -13 -27 -23 6 -2 -12 -2 -41 1 l-52 5 0 -100 0 -100 60 -6
c68 -8 180 2 180 14 0 14 78 10 82 -3 4 -10 17 -10 64 0 69 14 133 15 152 3 8
-4 33 -1 59 7 42 14 49 14 75 -1 17 -9 38 -17 49 -17 17 0 19 -8 19 -80 0 -44
4 -80 8 -80 10 0 32 -182 32 -262 0 -32 4 -58 10 -58 6 0 10 -39 10 -98 0 -87
-3 -101 -20 -117 -15 -14 -17 -21 -8 -26 8 -5 12 -43 11 -123 0 -64 4 -116 9
-116 4 0 8 -19 8 -42 0 -24 7 -49 17 -60 15 -17 15 -19 0 -36 -13 -14 -17 -38
-17 -100 0 -48 4 -82 10 -82 6 0 10 33 10 80 0 63 3 80 14 80 8 0 18 9 21 20
7 23 -2 60 -16 60 -15 0 -10 82 6 114 11 21 15 62 15 157 0 79 4 129 10 129 6
0 10 7 10 15 0 8 6 25 13 36 10 17 10 23 0 26 -19 7 -17 83 2 83 11 0 15 11
15 40 0 29 -4 40 -15 40 -19 0 -19 0 1 40 13 25 15 48 11 98 -7 67 10 253 24
262 4 3 10 40 14 83 6 66 5 77 -8 77 -9 0 -17 10 -19 22 -2 16 -13 25 -40 33
-20 5 -40 13 -44 18 -4 4 -77 7 -162 7 -128 0 -153 -2 -143 -13 6 -8 8 -17 4
-20 -10 -10 -53 -8 -53 2 0 5 -21 11 -47 14 -27 3 -61 8 -78 10 -16 3 -52 1
-80 -3z"/>
<path d="M5337 2733 c-2 -4 2 -21 9 -38 l13 -30 -3 33 c-3 34 -11 49 -19 35z"/>
<path d="M6800 2695 c0 -28 12 -32 30 -10 7 8 21 15 31 15 11 0 19 5 19 10 0
6 -18 10 -40 10 -36 0 -40 -2 -40 -25z"/>
<path d="M5407 2693 c-11 -10 -8 -73 3 -73 6 0 10 18 10 40 0 41 -2 45 -13 33z"/>
<path d="M5700 2530 c0 -5 14 -10 30 -10 17 0 30 5 30 10 0 6 -13 10 -30 10
-16 0 -30 -4 -30 -10z"/>
<path d="M6165 2530 c3 -5 8 -10 11 -10 2 0 4 5 4 10 0 6 -5 10 -11 10 -5 0
-7 -4 -4 -10z"/>
<path d="M7015 2480 c-18 -19 -17 -20 3 -20 15 0 22 6 22 20 0 11 -2 20 -3 20
-2 0 -12 -9 -22 -20z"/>
<path d="M1906 2321 c-4 -7 -5 -15 -2 -18 9 -9 19 4 14 18 -4 11 -6 11 -12 0z"/>
<path d="M1960 2310 c0 -5 9 -10 20 -10 11 0 20 5 20 10 0 6 -9 10 -20 10 -11
0 -20 -4 -20 -10z"/>
<path d="M6670 2044 c0 -8 5 -12 10 -9 6 3 10 10 10 16 0 5 -4 9 -10 9 -5 0
-10 -7 -10 -16z"/>
<path d="M4780 1287 c0 -8 11 -36 25 -63 14 -27 25 -55 25 -63 0 -8 3 -12 6
-9 6 6 -11 73 -30 121 -11 28 -26 36 -26 14z"/>
<path d="M5031 1183 c0 -18 16 -62 19 -53 8 27 6 45 -6 57 -12 13 -14 12 -13
-4z"/>
<path d="M5350 1029 c0 -5 5 -7 10 -4 6 3 10 8 10 11 0 2 -4 4 -10 4 -5 0 -10
-5 -10 -11z"/>
<path d="M5465 970 c-3 -5 -2 -10 4 -10 5 0 13 5 16 10 3 6 2 10 -4 10 -5 0
-13 -4 -16 -10z"/>
<path d="M5885 870 c-3 -5 -4 -10 -1 -10 2 0 11 -3 20 -6 11 -4 16 -1 16 10 0
18 -25 22 -35 6z"/>
<path d="M6140 851 c0 -6 5 -13 10 -16 6 -3 10 -17 10 -31 0 -20 -5 -24 -30
-24 -16 0 -30 -4 -30 -9 0 -12 37 -19 84 -16 27 2 35 0 27 -8 -8 -8 -6 -16 6
-29 12 -13 31 -18 75 -18 40 0 58 -4 58 -12 0 -9 3 -9 9 1 12 19 109 21 120 2
6 -9 11 -10 15 -2 4 6 20 11 37 11 29 0 29 1 29 55 0 49 -2 55 -20 55 -11 0
-23 -7 -26 -15 -4 -8 -12 -15 -20 -15 -9 0 -14 -11 -14 -30 0 -28 -2 -30 -40
-28 l-40 1 0 55 0 54 -80 -7 c-77 -7 -80 -6 -80 14 0 19 -6 21 -50 21 -27 0
-50 -4 -50 -9z"/>
<path d="M5710 840 c0 -5 7 -10 16 -10 8 0 12 5 9 10 -3 6 -10 10 -16 10 -5 0
-9 -4 -9 -10z"/>
<path d="M5975 840 c-9 -15 4 -30 26 -30 11 0 35 -6 53 -14 32 -13 33 -13 28
11 -4 19 -10 24 -31 22 -14 -2 -36 3 -48 9 -14 8 -24 9 -28 2z"/>
<path d="M7280 740 l0 -40 40 0 40 0 0 40 0 40 -40 0 -40 0 0 -40z"/>
<path d="M5980 700 c14 -4 36 -8 50 -8 22 0 22 1 -5 8 -16 4 -39 8 -50 8 -16
0 -15 -2 5 -8z"/>
<path d="M5110 635 c0 -8 4 -15 10 -15 5 0 7 7 4 15 -4 8 -8 15 -10 15 -2 0
-4 -7 -4 -15z"/>
<path d="M3279 576 c16 -20 51 -27 51 -11 0 14 -21 25 -47 25 -12 0 -13 -3 -4
-14z"/>
</g>
</svg>
